<svg xmlns="http://www.w3.org/2000/svg" xmlns:xlink="http://www.w3.org/1999/xlink" version="1.1" x="0px" y="0px" viewBox="0 0 100 125" enable-background="new 0 0 100 100" xml:space="preserve"><path d="M87.001,4.565l-0.452-0.073l-0.312,0.336c-0.415,0.445-0.581,0.976-0.714,1.402c-0.048,0.154-0.091,0.286-0.134,0.395  c-0.718-0.291-1.244-0.41-1.849-0.137c-0.446,0.201-0.795,0.563-1.377,1.164c-0.275,0.286-0.542,0.583-0.807,0.879  c-0.246,0.273-0.492,0.546-0.746,0.811c-2.467,2.565-5.153,4.994-7.98,7.219l-0.392,0.309c-0.912,0.721-1.853,1.466-2.819,2.11  c-2.373,1.583-4.893,3.074-7.487,4.432c-0.959,0.501-1.929,0.975-2.913,1.419c-1.58,0.714-3.245,1.378-4.951,1.974  c-1.895,0.661-3.799,1.293-5.705,1.925c-2.474,0.82-4.947,1.641-7.398,2.526c-2.533,0.913-4.574,1.728-6.431,2.567  c-2.941,1.328-5.454,2.74-7.682,4.314c-1.522,1.075-3.117,2.362-4.879,3.936c-1.621,1.449-3.148,3.193-4.816,5.507  c-1.195,1.661-2.43,3.379-3.453,5.204c-2.559,4.55-4.401,9.524-5.635,15.207c-0.868,3.988-1.304,7.503-1.334,10.749  c-0.012,1.609,0.096,3.227,0.202,4.793c0.042,0.617,0.134,2.151,0.134,2.151c0.029,0.561,0.057,1.14,0.195,1.725  c0.203,0.852,0.431,1.699,0.659,2.546c0.198,0.74,0.398,1.479,0.579,2.222c0.44,1.8,1.746,2.555,3.884,2.249  c0.169-0.025,0.335-0.072,0.492-0.143c0.806-0.364,1.231-1.242,1.013-2.084c-0.073-0.287-0.03-0.481,0.421-0.878l0.252-0.223  c0.832-0.729,1.692-1.483,2.589-2.118c0.848-0.602,1.975-1.359,3.167-1.898c0.853-0.386,1.667-0.632,2.485-0.753  c2.508-0.37,5.019-0.633,6.928-0.821c1.089-0.108,2.183-0.186,3.276-0.265c1.102-0.08,2.204-0.159,3.302-0.267  c2.04-0.201,3.676-0.416,5.15-0.679c3.382-0.599,6.584-1.606,10.118-2.764c1.605-0.525,3.17-1.13,4.654-1.801  c2.321-1.048,4.524-2.292,6.548-3.695c2.723-1.888,5.125-4.192,7.449-6.419l0.787-0.753c0.693-0.66,1.426-1.38,2.103-2.156  c1.754-2.017,3.31-3.961,4.754-5.94c2.054-2.81,3.638-5.8,4.71-8.888c0.992-2.855,2.13-6.179,3.087-9.506  c0.597-2.077,1.012-4.16,1.236-6.193c0.409-3.753,1.093-7.538,1.754-11.198l0.189-1.054c0.07-0.39,0.161-0.779,0.251-1.169  c0.165-0.705,0.335-1.436,0.396-2.196c0.094-1.155,0.129-2.314,0.164-3.475c0.023-0.799,0.048-1.599,0.091-2.398  c0.037-0.664,0.024-1.325,0.01-1.988c-0.021-0.983-0.04-1.911,0.106-2.837c0.173-1.095-0.209-2.273-0.562-3.177  C88.829,5.449,88.051,4.732,87.001,4.565z M49.939,76.868c-2.129,0.471-4.544,1.007-7.071,1.314  c-2.808,0.344-5.714,0.699-8.565,0.533l-1.016-0.063c-1.499-0.095-3.046-0.192-4.586-0.186c-2.632,0.014-5.422,0.181-8.078,1.261  c0.073-0.114,0.149-0.227,0.226-0.338c2.833-4.069,5.269-7.234,7.667-9.964s5.041-5.302,7.858-7.64l2.155-1.782  c1.245-1.029,2.492-2.058,3.728-3.098c0.666-0.564,1.322-1.143,1.977-1.72c0.627-0.553,1.253-1.108,1.893-1.649l0.708-0.603  c1.116-0.953,2.27-1.939,3.458-2.808c0.951-0.694,2.012-1.308,3.04-1.903l0.711-0.413c0.377-0.22,0.768-0.415,1.161-0.609  c0.389-0.194,0.776-0.387,1.153-0.602c0.506-0.291,0.827-0.677,0.947-1.147c0.123-0.484,0.021-1-0.308-1.536  c-0.833-1.359-3.075-2.05-4.53-1.393c-0.153,0.069-0.297,0.153-0.428,0.249c-0.876,0.642-1.852,1.304-3.073,2.081l-0.407,0.259  c-1.247,0.793-2.535,1.612-3.833,2.336c-5.064,2.826-10.422,5.958-15.307,9.717c-0.728,0.561-1.366,1.216-1.982,1.851  c-0.263,0.272-0.528,0.544-0.8,0.806l-0.175,0.171c-0.373,0.362-0.747,0.723-1.106,1.097c-1.977,2.049-3.655,4.267-5.037,6.169  c-2.719,3.745-5.126,7.755-7.456,11.632l-0.203,0.34c-0.12,0.198-0.233,0.399-0.341,0.604c0.129-3.044,0.398-5.48,0.853-7.772  c0.165-0.83,0.296-1.669,0.429-2.506c0.172-1.1,0.351-2.238,0.606-3.322c0.528-2.241,1.295-4.446,2.281-6.553  c1.204-2.579,2.799-5.057,4.734-7.365c0.265-0.316,0.51-0.653,0.755-0.99c0.352-0.486,0.685-0.946,1.072-1.319  c1.421-1.366,3.309-3.15,5.301-4.796c1.404-1.164,2.923-2.258,4.394-3.316l0.922-0.666c0.441-0.319,0.923-0.579,1.402-0.839  l0.404-0.221c0.494-0.273,0.985-0.559,1.474-0.843c1.028-0.598,2.089-1.216,3.162-1.701l0.347-0.151  c1.81-0.766,3.775-1.529,5.882-1.906c1.988-0.357,3.94-0.951,5.828-1.524l0.987-0.299c2.466-0.743,5.015-1.514,7.476-2.44  l1.614-0.602c2.283-0.851,4.646-1.729,6.918-2.756c1.182-0.534,2.246-1.064,3.248-1.62c2.277-1.259,4.647-2.838,7.244-4.828  c1.143-0.877,2.341-1.874,3.663-3.046c0.317-0.283,0.591-0.592,0.848-0.903c-0.033,0.37-0.075,0.738-0.116,1.107  c-0.086,0.765-0.17,1.531-0.202,2.299c-0.118,2.798-0.606,5.739-1.49,8.992c-1.345,4.941-2.437,8.719-3.539,12.249  c-1.221,3.907-2.396,7.324-3.593,10.445c-1.554,4.052-3.473,7.358-5.868,10.109c-2.718,3.12-5.73,5.868-8.953,8.17  c-1.099,0.785-2.242,1.511-3.384,2.239c-0.58,0.369-1.161,0.739-1.737,1.116c-0.968,0.636-2.101,1.359-3.275,1.89  C51.288,76.49,50.612,76.719,49.939,76.868z"/><text x="0" y="115" fill="#000000" font-size="5px" font-weight="bold" font-family="'Helvetica Neue', Helvetica, Arial-Unicode, Arial, Sans-serif">Created by Nick Dominguez</text><text x="0" y="120" fill="#000000" font-size="5px" font-weight="bold" font-family="'Helvetica Neue', Helvetica, Arial-Unicode, Arial, Sans-serif">from the Noun Project</text></svg>